PathFileType  4	(X/Y/Z) C:\Users\antoi\Documents\MyRepositories\mobilecap\ResultsAnalysis
DataRate	CameraRate	NumFrames	NumMarkers	Units	OrigDataRate	OrigDataStartFrame	OrigNumFrames
100.0	100.0	6	51	mm	100.0	167	1328
Frame#	Time	r_knee			r_shank_antsup			r_ankle			r_calc			r_5meta			r_toe			L_knee			L_shank_antsup			L_ankle			L_calc			L_5meta			L_toe			r_sh2			r_sh3			r_sh4			L_sh2			L_sh3			r_thigh1			r_thigh2			r_thigh3			r_thigh4			r_thigh5			L_thigh1			L_thigh2			L_thigh3			L_thigh4			r.ASIS			r.PSIS			L.ASIS			L.PSIS			C7			R_Shoulder			L_Shoulder			R_Sternum			L_Sternum			R_humerus			R_elbow_med			R_elbow_lat			R_forearm			R_wrist_radius			R_wrist_ulna			L_humerus			L_elbow_med			L_elbow_lat			L_forearm			L_wrist_radius			L_wrist_ulna			R_HJC			L_HJC			R_HJC_reg			L_HJC_reg			
		X1	Y1	Z1	X2	Y2	Z2	X3	Y3	Z3	X4	Y4	Z4	X5	Y5	Z5	X6	Y6	Z6	X7	Y7	Z7	X8	Y8	Z8	X9	Y9	Z9	X10	Y10	Z10	X11	Y11	Z11	X12	Y12	Z12	X13	Y13	Z13	X14	Y14	Z14	X15	Y15	Z15	X16	Y16	Z16	X17	Y17	Z17	X18	Y18	Z18	X19	Y19	Z19	X20	Y20	Z20	X21	Y21	Z21	X22	Y22	Z22	X23	Y23	Z23	X24	Y24	Z24	X25	Y25	Z25	X26	Y26	Z26	X27	Y27	Z27	X28	Y28	Z28	X29	Y29	Z29	X30	Y30	Z30	X31	Y31	Z31	X32	Y32	Z32	X33	Y33	Z33	X34	Y34	Z34	X35	Y35	Z35	X36	Y36	Z36	X37	Y37	Z37	X38	Y38	Z38	X39	Y39	Z39	X40	Y40	Z40	X41	Y41	Z41	X42	Y42	Z42	X43	Y43	Z43	X44	Y44	Z44	X45	Y45	Z45	X46	Y46	Z46	X47	Y47	Z47	X48	Y48	Z48	X49	Y49	Z49	X50	Y50	Z50	X51	Y51	Z51	

167	1.66000000	-144.84580	517.50749	-399.06203	-113.14955	392.14208	-403.04516	-286.95497	99.04384	-411.32243	-351.38605	64.39623	-460.16022	-161.99947	38.51942	-349.21901	-119.37856	65.37256	-418.23074	-151.62915	509.82486	-910.80292	-105.54065	400.18943	-904.79818	-286.15006	95.25603	-918.73954	-355.07710	67.72793	-871.32623	-150.56525	35.05122	-950.56713	-119.27204	60.86023	-882.64360	-142.70462	281.50925	-426.08177	-179.24333	399.99757	-362.65280	-201.45636	284.54220	-365.39158	-184.17574	425.71535	-942.12913	-198.96816	305.48152	-960.00371	-244.85617	746.83263	-456.50270	-160.58452	671.45649	-448.97562	-167.09006	637.47449	-389.93068	-305.17251	685.27692	-381.89440	-213.79018	609.03607	-377.66693	-277.51801	741.28486	-874.63887	-170.13557	655.93381	-890.88998	-347.09268	660.42592	-911.79668	-239.67182	574.53273	-926.00731	-356.50315	834.86401	-507.87835	-504.91354	933.86120	-596.71240	-337.61644	821.06567	-774.01099	-502.80139	934.07840	-696.03032	-240.08728	1339.43113	-642.70883	-155.93576	1259.49557	-459.00724	-152.33265	1266.21166	-810.19850	-117.72817	1229.67902	-619.22613	-121.33668	1225.33059	-661.10338	-142.89362	1097.89991	-381.90532	-223.58423	876.52122	-396.08635	-178.52594	909.22218	-318.08186	-62.54998	981.04645	-414.47636	21.06343	1014.92857	-485.83988	41.39295	979.10075	-484.34965	-135.42744	1103.73180	-896.46846	-220.77169	883.48075	-909.34520	-157.27995	916.54353	-962.33874	-75.70603	987.15108	-840.88510	12.26731	1013.83545	-770.47236	31.72693	969.79127	-774.13778	-451.04961	787.11550	-544.44999	-443.79164	770.01197	-757.02987	-445.33121	782.08554	-547.65144	-441.58044	782.47482	-723.93745	
168	1.67000000	-143.48778	516.82802	-399.50585	-111.76256	391.52380	-403.48552	-286.74672	99.15522	-411.41335	-351.33765	64.47752	-460.33234	-161.98237	38.65090	-349.31649	-119.25206	65.21014	-418.41117	-150.68621	508.97005	-911.13236	-104.45165	399.56509	-905.25023	-286.03372	95.27770	-918.74761	-355.05797	67.79611	-871.23458	-150.56345	35.06793	-950.55730	-119.24957	60.83443	-882.60867	-141.82704	281.00487	-426.61270	-177.67446	399.52776	-363.18969	-200.59430	284.49519	-365.35866	-183.08848	425.22980	-942.40397	-197.93987	305.51955	-960.80255	-246.80547	744.39390	-458.02623	-161.12560	670.59484	-450.04743	-167.06111	636.73871	-390.88011	-305.66765	682.70790	-382.39734	-213.18671	607.78994	-378.17621	-280.00015	738.49373	-874.29735	-171.28074	654.98670	-890.90006	-348.09530	656.86192	-912.32806	-239.29568	572.65313	-926.47876	-360.00739	829.95385	-509.88671	-506.43612	927.77752	-596.98205	-341.62104	816.31056	-773.30743	-504.52623	927.87197	-696.14523	-239.13013	1331.41051	-642.90144	-154.80236	1251.34851	-459.26144	-151.44197	1257.89506	-810.01318	-117.16258	1221.12085	-619.40220	-120.71814	1216.75598	-661.16312	-141.65131	1090.02102	-381.96832	-222.54386	868.69195	-395.70547	-176.95117	901.32888	-317.92572	-61.14158	973.43496	-414.17411	22.39735	1006.83136	-486.17155	42.66449	971.63676	-484.13403	-134.07928	1095.86129	-896.59845	-218.36577	875.13063	-909.66018	-154.86704	908.63522	-962.69403	-73.92508	979.39249	-840.88327	13.76441	1006.34836	-770.24569	33.39915	962.30907	-773.71561	-453.62387	781.61008	-544.86095	-446.73076	764.56921	-757.45505	-448.00726	777.90008	-548.93538	-444.64778	778.06390	-723.41982	
169	1.68000000	-142.04643	516.14865	-399.96641	-110.41163	390.93522	-404.07138	-286.53601	99.25338	-411.58225	-351.31977	64.52791	-460.50021	-161.92091	38.79801	-349.37177	-119.13949	65.12685	-418.52623	-149.77440	508.26490	-911.76835	-103.41359	399.01759	-905.89959	-285.91866	95.29639	-918.75454	-355.03344	67.86550	-871.14405	-150.56180	35.07672	-950.55352	-119.21151	60.79371	-882.57135	-140.93376	280.50833	-427.07654	-176.23656	399.14834	-363.55622	-199.79297	284.60908	-365.35672	-182.02450	424.91540	-942.98135	-197.16715	305.25860	-961.11061	-248.77203	741.93723	-459.30340	-161.64809	669.76712	-450.94892	-167.01488	635.78976	-392.03329	-306.19569	679.93910	-382.83250	-212.64755	606.37061	-378.77661	-282.56997	735.88228	-875.32564	-172.44718	654.08455	-890.87251	-349.12855	653.31984	-912.87409	-239.02570	570.89369	-927.01747	-363.46632	825.05283	-511.57802	-507.86927	921.80552	-597.08717	-345.53681	813.42510	-775.17762	-506.23786	921.72051	-696.14923	-238.22610	1323.45097	-643.03073	-153.74596	1243.17571	-459.56042	-150.61591	1249.69536	-809.91459	-116.70004	1212.62218	-619.63528	-120.19997	1208.32319	-661.32129	-140.42977	1082.15029	-381.83278	-221.14469	860.80527	-395.37520	-175.39994	893.38486	-317.78113	-59.68457	965.81498	-413.89311	23.65889	999.15839	-485.93704	43.86032	964.15932	-484.00993	-132.74869	1088.07641	-896.72906	-215.92041	866.95694	-910.12694	-152.49130	900.72870	-962.82363	-72.11474	971.78365	-840.91338	15.28210	999.12199	-770.24037	35.11388	955.03079	-773.55592	-455.59796	775.83578	-546.37258	-449.36507	760.34637	-759.10439	-450.97209	774.03437	-550.33904	-448.10002	773.88349	-724.86601	
170	1.69000000	-140.66120	515.36144	-400.48303	-109.12157	390.30051	-404.69992	-286.28958	99.29895	-411.82946	-351.29902	64.55846	-460.64139	-161.86512	38.87864	-349.40030	-119.05897	65.02919	-418.59877	-148.96266	507.67284	-912.51637	-102.54415	398.50353	-906.67853	-285.83294	95.31835	-918.74557	-355.00879	67.95554	-871.06716	-150.56666	35.08420	-950.59069	-119.17455	60.78097	-882.56901	-140.05651	280.01359	-427.48619	-174.95007	398.78639	-363.87334	-198.64887	284.11924	-365.96853	-181.03525	424.62009	-943.67177	-196.54426	304.93136	-961.46849	-250.78007	739.47459	-460.22455	-162.32524	668.77948	-451.86210	-167.03121	634.82023	-393.13648	-306.82243	677.03571	-383.17820	-212.20371	604.82413	-379.34062	-285.16907	733.20261	-875.81950	-173.69125	653.15943	-890.96497	-350.29036	649.88742	-913.46199	-238.89183	569.26358	-927.86381	-366.93498	820.41099	-512.44689	-509.27476	915.87254	-597.01952	-349.41559	809.75332	-775.92048	-507.90167	915.44256	-696.21748	-237.48481	1315.46782	-643.16375	-152.78686	1234.99892	-459.87351	-149.86065	1241.62768	-809.95929	-116.24091	1204.23285	-620.00329	-119.78749	1199.98824	-661.51158	-139.26519	1074.26383	-381.69666	-219.48285	852.78020	-395.11822	-173.86451	885.42275	-317.58830	-58.27810	958.07799	-413.81813	24.84664	991.93073	-485.55329	45.10545	956.71771	-483.99009	-131.44495	1080.43690	-896.92939	-213.48430	858.82864	-910.53373	-150.14160	892.93727	-963.00958	-70.30117	964.32105	-840.99969	16.80781	992.03650	-770.18900	37.12368	948.58551	-774.55672	-457.78101	770.36750	-546.98730	-451.93813	755.48834	-759.78094	-453.90646	770.10704	-550.79745	-451.49118	769.35496	-725.19540	
171	1.70000000	-139.48987	514.49667	-401.10284	-107.91748	389.68444	-405.24917	-286.02611	99.33887	-412.09842	-351.25350	64.58888	-460.74821	-161.83327	38.91933	-349.48552	-118.98538	64.89403	-418.68974	-148.31735	507.02556	-913.18859	-101.81715	398.00977	-907.41475	-285.76466	95.32911	-918.75629	-354.98566	68.03989	-870.99875	-150.57467	35.08761	-950.66384	-119.14637	60.79904	-882.61008	-139.27215	279.54784	-428.03399	-173.64453	398.40888	-364.42161	-197.25923	283.16270	-367.06049	-180.11284	424.21601	-944.38856	-195.97477	304.49966	-961.99793	-252.81542	736.89270	-461.08999	-163.12003	667.59412	-452.87888	-167.17920	633.93563	-393.98624	-307.55549	674.05616	-383.50937	-211.88993	603.21026	-379.85182	-287.80738	730.39538	-875.25043	-175.06305	652.29401	-891.21029	-351.58718	646.46505	-913.87920	-238.86918	567.71875	-928.94172	-370.39681	815.74658	-513.04149	-510.65767	909.76352	-596.92896	-353.22963	804.68928	-774.62032	-509.51963	909.07202	-696.36444	-236.93884	1307.51344	-643.35305	-151.94963	1226.90337	-460.13665	-149.24292	1233.65681	-810.03378	-115.86682	1195.91059	-620.31078	-119.44263	1191.69435	-661.62777	-138.13753	1066.47118	-381.82552	-217.81167	844.74243	-394.76749	-172.28591	877.60880	-317.23031	-56.92771	950.41170	-413.56679	26.00745	984.74491	-485.33500	46.42873	949.50019	-483.76536	-130.17894	1072.87789	-897.10057	-211.07754	850.73453	-910.82717	-147.79553	885.27920	-963.41300	-68.50476	956.94730	-841.15417	18.34284	984.98187	-769.98734	39.29066	942.71415	-776.17693	-460.36638	765.07231	-546.58167	-454.54748	749.65126	-759.33775	-456.55783	765.75958	-550.71449	-454.57579	764.55481	-723.86509	
172	1.71000000	-138.39196	513.66742	-401.78904	-106.78386	389.15499	-405.76892	-285.78919	99.43972	-412.31822	-351.17198	64.64331	-460.86313	-161.82744	38.94577	-349.62558	-118.90966	64.75102	-418.78730	-147.74263	506.33308	-913.98231	-101.07379	397.60063	-908.16579	-285.69829	95.30722	-918.76414	-354.95588	68.08203	-870.89986	-150.57991	35.05756	-950.72417	-119.12365	60.81201	-882.66759	-138.52012	279.08918	-428.68165	-172.29027	398.06922	-365.04380	-196.08031	282.51328	-367.91637	-179.32067	423.82500	-945.31941	-195.47115	304.01825	-962.48130	-254.75551	733.96510	-462.50567	-164.03357	666.49131	-453.90969	-167.46089	633.04291	-394.70740	-308.32662	670.99416	-383.92603	-211.66084	601.58923	-380.36566	-290.50851	727.63042	-874.87098	-176.52672	651.50630	-891.41584	-352.96823	642.92936	-914.10655	-238.92930	566.21166	-930.04990	-373.63819	810.33798	-514.89552	-512.04601	903.48919	-596.93934	-357.00026	800.04092	-773.75250	-511.17464	902.72243	-696.43713	-236.52262	1299.63322	-643.44330	-151.18645	1218.91445	-460.36636	-148.71063	1225.74064	-810.11077	-115.60172	1187.66947	-620.50326	-119.11785	1183.44182	-661.71668	-136.99128	1058.86801	-382.14801	-216.19005	836.83539	-394.13412	-170.66731	869.95825	-316.74749	-55.62140	942.96435	-413.08522	27.18998	977.40170	-485.19877	47.80246	942.39794	-483.36998	-128.94924	1065.35512	-897.20278	-208.69700	842.71750	-911.17143	-145.48543	877.72318	-963.85965	-66.75215	949.62119	-841.36376	19.87083	977.99698	-769.80656	41.17924	936.49120	-776.97156	-462.75046	759.19655	-547.01888	-457.25228	744.23104	-759.81107	-458.99908	761.43903	-551.83218	-457.49915	760.11663	-723.15608	
